<?xml version="1.0" standalone="no"?>
<!DOCTYPE svg PUBLIC "-//W3C//DTD SVG 20010904//EN"
 "http://www.w3.org/TR/2001/REC-SVG-20010904/DTD/svg10.dtd">
<svg version="1.0" xmlns="http://www.w3.org/2000/svg"
 width="256.000000pt" height="256.000000pt" viewBox="0 0 256.000000 256.000000"
 preserveAspectRatio="xMidYMid meet">

<g transform="translate(0.000000,256.000000) scale(0.100000,-0.100000)"
fill="#000000" stroke="none">
<path d="M1756 2478 c-58 -124 -165 -340 -170 -345 -2 -2 -18 3 -34 11 -100
52 -282 82 -282 47 0 -18 62 -56 219 -136 l54 -27 -29 -26 -29 -27 -29 33
c-40 45 -76 62 -136 62 -61 0 -104 -17 -152 -59 l-36 -32 -34 21 c-47 28 -96
25 -163 -10 -31 -16 -59 -30 -60 -30 -2 0 -46 55 -98 123 -133 171 -188 211
-294 212 -52 0 -67 -4 -104 -30 -64 -45 -84 -86 -84 -170 0 -54 6 -82 24 -120
24 -48 129 -165 149 -165 11 0 102 79 102 88 0 4 -16 18 -35 32 -42 30 -95
105 -95 134 0 35 28 66 59 66 46 0 91 -39 193 -170 82 -105 97 -131 98 -162
l0 -36 -53 1 c-65 1 -110 -22 -150 -80 -33 -46 -45 -115 -29 -162 11 -30 10
-32 -26 -47 -82 -34 -130 -115 -118 -201 8 -57 45 -117 86 -138 l30 -16 -24
-32 c-13 -18 -30 -51 -36 -74 -26 -88 35 -193 129 -221 34 -11 41 -17 36 -30
-35 -84 -24 -156 31 -209 45 -42 103 -58 165 -46 47 10 47 10 53 -19 16 -81
100 -135 193 -124 30 3 75 16 100 28 l46 22 16 -25 c49 -76 132 -110 212 -89
56 15 95 43 115 83 9 18 18 33 19 35 1 1 25 -9 53 -23 60 -30 109 -32 164 -5
23 11 43 20 45 20 2 0 69 -89 149 -197 81 -109 150 -201 154 -206 5 -5 91 50
116 76 2 2 -75 109 -171 237 -96 128 -175 239 -175 247 0 8 13 13 38 13 51 0
112 37 140 85 18 32 22 52 19 100 -2 33 -6 67 -10 75 -5 11 4 19 31 31 22 9
52 33 68 54 25 33 29 47 29 101 0 55 -4 66 -33 103 l-33 41 21 36 c16 25 22
51 22 95 0 71 -21 109 -83 153 -19 13 -20 16 -5 44 22 43 20 97 -5 142 -23 41
-48 58 -100 69 -23 5 -33 13 -30 22 2 8 6 26 9 42 2 15 6 27 7 27 2 0 39 -13
82 -29 102 -37 163 -44 163 -17 0 17 -87 86 -172 137 -32 19 -58 38 -58 43 0
5 29 59 63 120 149 261 151 265 131 287 -57 63 -343 209 -410 209 -7 0 -29
-33 -48 -72z m-229 -802 c142 -38 258 -127 309 -239 26 -56 29 -72 29 -167 0
-84 -4 -113 -20 -145 -30 -61 -102 -127 -182 -167 -64 -32 -70 -37 -56 -51 9
-9 18 -38 21 -65 4 -41 1 -53 -17 -71 -11 -11 -29 -21 -39 -21 -25 0 -60 27
-82 62 l-18 29 -6 -35 c-7 -39 -38 -66 -74 -66 -39 0 -61 18 -73 60 l-12 40
-19 -31 c-21 -35 -80 -63 -115 -54 -29 7 -55 61 -46 96 3 13 14 35 23 48 l17
25 -61 29 c-89 42 -156 98 -196 163 -34 56 -35 62 -35 154 0 114 18 162 92
241 74 80 184 142 298 168 61 14 204 12 262 -3z"/>
<path d="M1070 1379 c-39 -24 -59 -49 -77 -94 -17 -45 -15 -74 8 -122 53 -110
188 -131 275 -42 34 35 38 45 42 101 3 54 0 68 -20 98 -54 79 -152 105 -228
59z"/>
<path d="M1519 1377 c-99 -67 -107 -203 -16 -278 51 -41 141 -43 200 -4 71 46
95 159 47 228 -52 76 -161 101 -231 54z"/>
<path d="M1352 1074 c-17 -12 -22 -24 -20 -46 4 -40 28 -55 65 -42 38 13 45
65 11 88 -12 9 -25 16 -28 16 -3 0 -16 -7 -28 -16z"/>
</g>
</svg>
