<?xml version="1.0" standalone="no"?>
<!DOCTYPE svg PUBLIC "-//W3C//DTD SVG 20010904//EN"
 "http://www.w3.org/TR/2001/REC-SVG-20010904/DTD/svg10.dtd">
<svg version="1.0" xmlns="http://www.w3.org/2000/svg"
 width="360.000000pt" height="302.000000pt" viewBox="0 0 360.000000 302.000000"
 preserveAspectRatio="xMidYMid meet">

<g transform="translate(0.000000,302.000000) scale(0.100000,-0.100000)"
fill="#000000" stroke="none">
<path d="M1543 3000 c-146 -21 -281 -88 -367 -180 -81 -89 -136 -222 -136
-335 l0 -50 -84 -44 c-46 -24 -119 -70 -162 -102 -44 -32 -81 -59 -84 -59 -3
0 -32 19 -66 43 l-60 42 27 43 c54 85 47 186 -19 262 -44 53 -101 80 -167 80
-51 0 -123 -27 -159 -58 -33 -30 -66 -113 -66 -169 0 -41 -4 -53 -15 -53 -25
0 -88 -36 -116 -67 -43 -46 -59 -87 -59 -153 0 -205 242 -301 384 -151 l29 30
43 -31 c24 -17 44 -33 44 -35 0 -2 -24 -43 -53 -92 -108 -178 -160 -409 -137
-608 6 -53 9 -97 8 -98 -2 -1 -28 -15 -58 -31 -78 -42 -170 -136 -208 -214
-36 -74 -64 -193 -60 -254 3 -40 4 -41 52 -53 26 -7 50 -14 52 -16 2 -2 -3
-20 -11 -40 -48 -116 24 -264 144 -297 36 -9 36 -10 33 -57 -7 -103 85 -212
191 -226 95 -13 192 40 233 127 29 63 30 126 4 185 -11 23 -18 46 -15 51 2 4
38 30 79 58 l74 52 33 -23 c52 -35 52 -80 0 -166 -50 -83 -58 -118 -37 -163
22 -45 63 -68 124 -68 85 0 156 71 183 185 6 28 13 55 15 62 2 8 17 6 51 -7
26 -10 97 -29 157 -42 l109 -25 14 -54 c31 -121 107 -187 228 -197 151 -12
270 74 293 210 l7 41 130 32 c72 18 147 39 167 48 20 8 39 13 42 9 3 -3 6 -22
6 -42 0 -65 29 -142 70 -182 35 -36 41 -38 100 -38 55 0 65 3 92 31 28 27 30
34 25 77 -3 26 -20 79 -36 117 -17 39 -31 88 -31 111 0 37 4 44 40 68 22 14
43 26 48 26 9 0 182 -118 182 -124 0 -2 -9 -23 -20 -47 -56 -123 12 -266 143
-304 49 -14 67 -15 105 -5 108 26 175 108 176 212 l1 58 46 15 c25 9 62 32 82
53 163 168 5 433 -223 372 -33 -8 -58 -26 -95 -64 l-51 -53 -62 44 -61 44 49
65 c75 98 128 192 164 295 l34 93 67 13 c155 28 273 118 339 256 37 77 63 184
49 198 -4 4 -38 3 -75 -3 -37 -7 -70 -9 -74 -5 -4 3 12 39 35 79 23 39 39 78
36 86 -10 28 -234 -8 -334 -53 -29 -14 -54 -25 -56 -25 -1 0 -18 39 -38 88
-20 48 -52 111 -71 139 l-35 53 62 44 62 45 35 -33 c52 -50 97 -69 161 -69
126 2 219 97 219 225 -1 97 -62 183 -150 209 l-40 12 0 52 c0 116 -89 213
-204 223 -70 6 -119 -12 -172 -60 -78 -72 -93 -179 -39 -276 14 -24 23 -47 21
-51 -2 -3 -36 -28 -74 -54 l-70 -47 -93 70 c-238 178 -544 284 -886 305 -62 4
-113 9 -113 12 0 2 11 26 25 53 26 51 55 149 55 183 0 21 -7 21 -122 1 -49 -8
-48 0 3 87 22 38 37 74 34 79 -7 11 -75 11 -152 0z m87 -35 c0 -3 -14 -33 -31
-66 -16 -33 -29 -70 -27 -82 3 -21 8 -22 81 -20 l78 2 -6 -32 c-4 -18 -21 -64
-39 -102 -84 -180 -265 -266 -498 -236 -50 7 -95 14 -100 17 -23 14 6 164 48
245 71 141 225 240 420 268 32 5 62 9 67 10 4 0 7 -1 7 -4z m-1137 -319 c44
-18 94 -77 107 -127 17 -61 -3 -132 -49 -173 -12 -11 -21 -25 -21 -31 0 -7 34
-36 76 -65 l75 -52 -67 -72 c-38 -39 -70 -73 -71 -75 -2 -3 -30 14 -63 37 -32
23 -63 42 -69 42 -5 0 -19 -15 -30 -33 -29 -47 -87 -77 -151 -77 -104 0 -180
75 -180 179 0 62 16 97 65 139 34 31 52 38 105 44 24 3 25 5 22 69 -5 97 29
159 108 193 44 19 101 20 143 2z m2692 -5 c75 -34 109 -98 103 -195 -3 -59 -2
-61 22 -64 53 -6 71 -13 106 -44 45 -40 64 -82 64 -143 0 -53 -16 -89 -57
-126 -42 -39 -66 -49 -123 -49 -64 0 -122 30 -151 77 -11 18 -25 33 -31 33 -5
0 -43 -23 -84 -52 -43 -30 -78 -48 -82 -42 -5 5 -36 39 -71 76 l-62 66 90 62
c50 34 91 67 91 72 0 6 -13 26 -30 44 -42 48 -57 104 -42 160 32 119 148 175
257 125z m-1090 -136 c289 -66 503 -177 695 -361 130 -126 236 -283 279 -416
l12 -37 -65 -64 c-103 -101 -161 -241 -154 -373 l3 -58 60 -13 c33 -7 84 -12
113 -13 28 0 52 -4 52 -10 0 -20 -52 -148 -87 -210 -81 -150 -225 -305 -378
-411 l-80 -55 0 -69 c0 -55 6 -83 28 -133 41 -91 45 -125 16 -146 -35 -24 -92
-21 -127 9 -41 35 -60 116 -67 295 -3 80 -10 164 -14 187 -5 25 -5 43 1 43 4
0 38 -18 74 -40 36 -22 72 -40 79 -40 12 0 159 191 170 222 10 27 -135 153
-313 273 -1 1 18 32 42 68 82 123 111 229 104 391 -8 175 -64 300 -193 431
-169 171 -389 255 -640 242 -371 -19 -676 -260 -741 -587 -30 -151 3 -330 84
-456 21 -32 41 -64 45 -71 4 -7 -24 -32 -77 -67 -102 -68 -249 -203 -242 -222
11 -29 160 -224 171 -224 7 0 50 22 95 50 46 27 85 48 87 47 1 -2 -2 -19 -7
-38 -6 -18 -10 -104 -10 -190 0 -176 -12 -232 -60 -291 -20 -25 -42 -39 -65
-44 -110 -20 -150 60 -81 162 53 78 66 151 34 191 -5 7 -51 41 -101 77 -51 36
-125 99 -166 140 l-74 74 30 39 c74 93 140 286 106 306 -5 3 -39 -2 -77 -9
-38 -8 -71 -13 -73 -10 -3 3 13 37 36 76 59 104 59 104 -51 97 -51 -3 -115
-13 -143 -21 -27 -8 -52 -13 -55 -10 -3 3 -5 81 -5 172 0 197 15 264 95 427
105 214 282 390 534 530 l68 38 77 -12 c210 -32 380 8 482 113 l34 35 160 -3
c131 -3 182 -8 280 -31z m-120 -360 c436 -127 646 -549 455 -914 -23 -42 -50
-87 -61 -100 l-20 -25 -59 30 -60 29 36 45 c95 119 133 270 103 412 -32 153
-154 302 -309 376 -264 126 -569 82 -766 -112 -189 -186 -215 -455 -63 -655
22 -29 38 -55 36 -58 -3 -2 -33 -17 -66 -33 l-61 -29 -29 42 c-80 118 -114
224 -114 357 0 163 57 301 177 427 107 113 257 196 401 222 33 6 71 13 85 15
62 11 229 -4 315 -29z m-50 -142 c129 -32 268 -129 334 -232 68 -105 92 -247
61 -361 -23 -86 -109 -220 -142 -220 -7 0 5 17 25 38 20 21 37 44 37 52 0 8
-50 60 -111 114 -88 79 -108 101 -97 111 7 6 61 53 121 104 72 63 105 97 100
105 -16 26 -206 186 -222 186 -9 0 -67 -43 -129 -95 -63 -52 -116 -95 -118
-95 -3 0 -56 47 -118 105 -63 58 -119 105 -125 105 -13 0 -251 -207 -251 -219
0 -4 48 -52 108 -106 59 -53 108 -101 110 -105 2 -4 -49 -50 -112 -102 -63
-51 -115 -99 -115 -106 -1 -7 10 -28 24 -46 32 -42 32 -56 0 -26 -75 70 -125
197 -125 316 0 209 144 390 370 465 120 41 246 45 375 12z m-144 -343 c8 0 66
43 129 95 63 52 118 95 121 95 3 0 43 -32 88 -71 l82 -72 -43 -36 c-124 -105
-199 -174 -196 -181 2 -4 54 -54 116 -110 l113 -103 -36 -37 -36 -37 -65 18
c-36 10 -102 23 -147 30 -68 9 -87 16 -112 40 -17 16 -35 29 -39 29 -5 0 -23
-13 -41 -29 -26 -23 -45 -29 -103 -35 -38 -4 -105 -15 -148 -26 -43 -10 -82
-16 -86 -14 -4 3 -16 17 -27 33 l-20 28 119 98 c66 54 120 103 120 110 0 7
-48 56 -107 111 -60 54 -108 102 -108 105 0 4 42 44 93 89 l94 81 112 -106
c63 -58 120 -105 127 -105z m1669 86 c0 -2 -13 -30 -30 -61 -51 -97 -35 -121
66 -105 33 6 61 10 63 10 10 0 -14 -82 -40 -136 -59 -124 -163 -207 -297 -235
-55 -11 -219 -7 -286 7 l-28 7 6 62 c20 196 135 345 316 410 82 30 230 56 230
41z m-2885 -585 c-19 -37 -35 -75 -35 -84 0 -23 34 -30 106 -22 l63 7 -15 -54
c-68 -232 -260 -348 -524 -318 -125 14 -123 13 -115 74 31 250 181 403 443
450 122 22 117 26 77 -53z m1405 34 c181 -37 368 -120 512 -227 92 -68 168
-136 168 -150 0 -5 -27 -47 -60 -93 l-61 -83 -74 42 c-143 82 -331 144 -517
172 -307 45 -690 -32 -944 -190 l-41 -25 -61 83 c-34 46 -62 88 -62 94 0 6 35
41 77 77 211 180 445 285 713 319 64 8 275 -3 350 -19z m29 -394 c55 -11 152
-37 213 -58 l113 -38 11 -65 c7 -36 12 -106 13 -157 l1 -92 -57 -21 c-183 -68
-366 -94 -613 -87 -192 6 -284 20 -440 69 l-75 24 -8 69 c-11 90 -4 179 18
232 17 42 19 43 109 72 258 82 477 98 715 52z m-1410 -85 l22 -23 -51 -37
c-29 -21 -53 -36 -54 -34 -36 57 -38 61 -25 69 8 5 28 17 44 28 39 25 38 25
64 -3z m2708 -21 c50 -21 72 -42 94 -90 24 -53 24 -109 -2 -162 -25 -53 -62
-80 -129 -96 l-51 -12 6 -57 c12 -100 -46 -185 -140 -205 -165 -36 -285 142
-190 282 14 20 23 39 21 43 -2 4 -47 36 -100 72 -53 36 -96 67 -96 70 0 3 34
36 75 73 l75 69 80 -56 c86 -61 105 -67 115 -35 10 31 66 90 100 105 41 18 98
17 142 -1z m-2827 -96 c7 -16 18 -29 26 -29 7 0 43 21 79 46 l66 46 47 -44
c26 -24 62 -55 80 -69 l33 -25 -91 -63 c-89 -62 -100 -74 -79 -87 18 -11 49
-87 49 -122 0 -65 -44 -138 -103 -169 -37 -19 -127 -19 -164 0 -71 37 -108
112 -99 198 l7 56 -43 7 c-123 19 -196 159 -139 265 18 34 18 34 87 33 38 -1
96 4 129 11 55 12 62 12 82 -6 12 -10 27 -32 33 -48z m1113 -359 c12 0 17 -8
17 -30 0 -34 -9 -36 -50 -15 -37 19 -43 61 -7 51 12 -3 30 -6 40 -6z m387 -8
c0 -17 -46 -52 -69 -52 -6 0 -11 13 -11 29 0 23 5 31 23 34 46 9 57 7 57 -11z
m-242 -35 l3 -37 -45 0 -46 0 0 41 0 40 43 -3 c41 -3 42 -5 45 -41z m122 3 l0
-40 -40 0 c-39 0 -40 1 -40 33 0 42 5 47 47 47 32 0 33 -1 33 -40z m-95 -80
c60 1 116 7 140 15 21 8 41 12 44 9 3 -2 -11 -20 -29 -39 -54 -56 -156 -79
-243 -54 -35 10 -117 72 -117 89 0 4 23 1 52 -6 29 -8 98 -14 153 -14z"/>
<path d="M1689 2455 c-85 -46 -46 -180 53 -180 33 0 45 6 69 33 76 85 -21 202
-122 147z m91 -45 c24 -24 25 -38 4 -68 -36 -51 -117 -8 -95 51 16 41 59 49
91 17z"/>
<path d="M1214 2336 c-46 -46 -46 -86 0 -132 25 -24 43 -34 66 -34 44 0 100
56 100 100 0 44 -56 100 -100 100 -23 0 -41 -9 -66 -34z m101 -31 c14 -13 25
-29 25 -35 0 -6 -11 -22 -25 -35 -13 -14 -29 -25 -35 -25 -14 0 -60 46 -60 60
0 6 11 22 25 35 13 14 29 25 35 25 6 0 22 -11 35 -25z"/>
<path d="M2168 2355 c-34 -19 -48 -44 -48 -85 0 -42 15 -67 52 -86 66 -34 138
11 138 87 0 74 -78 120 -142 84z m80 -41 c42 -29 17 -104 -35 -104 -20 0 -53
38 -53 60 0 22 33 60 53 60 7 0 23 -7 35 -16z"/>
<path d="M883 2036 c-17 -8 -39 -29 -48 -46 -49 -95 79 -187 156 -111 39 40
40 89 2 130 -34 37 -68 45 -110 27z m82 -56 c41 -46 -29 -116 -75 -75 -22 20
-27 64 -8 83 19 19 63 14 83 -8z"/>
<path d="M2544 2041 c-30 -13 -64 -59 -64 -88 0 -32 26 -80 49 -93 72 -38 164
29 146 108 -12 56 -80 94 -131 73z m82 -70 c25 -49 -26 -98 -74 -72 -30 16
-37 48 -17 77 22 33 74 31 91 -5z"/>
<path d="M2675 1616 c-90 -39 -60 -186 38 -186 43 0 92 38 100 77 7 40 -16 89
-52 107 -36 19 -47 19 -86 2z m83 -48 c29 -29 1 -98 -40 -98 -24 0 -58 35 -58
59 0 42 68 69 98 39z"/>
<path d="M721 1594 c-25 -21 -31 -33 -31 -66 0 -51 14 -77 53 -93 101 -42 185
79 108 156 -39 38 -87 39 -130 3z m101 -31 c36 -33 13 -93 -37 -93 -49 0 -72
55 -38 92 20 22 51 23 75 1z"/>
<path d="M875 1209 c-50 -29 -70 -92 -45 -140 13 -24 61 -49 94 -49 33 0 82
43 89 77 6 31 -12 81 -36 101 -22 18 -78 24 -102 11z m73 -45 c48 -33 8 -117
-48 -99 -45 14 -51 87 -7 105 30 12 30 12 55 -6z"/>
<path d="M2506 1194 c-37 -38 -37 -105 0 -139 41 -38 104 -35 138 6 36 43 35
91 -3 130 -40 39 -97 41 -135 3z m106 -31 c22 -20 23 -51 1 -75 -33 -36 -93
-13 -93 37 0 49 55 72 92 38z"/>
<path d="M1387 736 c-71 -26 -109 -79 -109 -150 1 -103 75 -173 174 -164 116
12 182 129 131 235 -32 68 -124 105 -196 79z"/>
<path d="M2005 741 c-81 -20 -130 -90 -122 -174 7 -81 63 -137 145 -145 112
-10 200 92 172 199 -24 87 -111 140 -195 120z"/>
<path d="M1691 414 c-36 -46 -9 -97 48 -92 26 2 39 10 50 30 14 25 14 29 -5
55 -29 39 -66 41 -93 7z"/>
</g>
</svg>
