<?xml version="1.0" standalone="no"?>
<!DOCTYPE svg PUBLIC "-//W3C//DTD SVG 20010904//EN"
 "http://www.w3.org/TR/2001/REC-SVG-20010904/DTD/svg10.dtd">
<svg version="1.0" xmlns="http://www.w3.org/2000/svg"
 width="920.000000pt" height="895.000000pt" viewBox="0 0 920.000000 895.000000"
 preserveAspectRatio="xMidYMid meet">

<g transform="translate(0.000000,895.000000) scale(0.100000,-0.100000)"
fill="#000000" stroke="none">
<path d="M4330 8940 c-789 -74 -1353 -419 -1639 -1004 -134 -273 -195 -539
-196 -856 0 -300 72 -561 243 -880 31 -58 56 -107 54 -110 -31 -81 -87 -265
-103 -345 -13 -61 -27 -105 -34 -105 -7 0 -62 11 -124 25 -336 74 -780 100
-1106 65 -422 -46 -761 -187 -977 -407 -102 -103 -149 -167 -209 -286 -96
-192 -133 -364 -133 -617 0 -197 15 -280 79 -417 187 -405 699 -703 1378 -803
170 -25 407 -35 532 -21 l100 10 57 -40 c69 -48 144 -82 218 -98 98 -22 93
-15 54 -79 -71 -121 -134 -317 -134 -420 0 -69 19 -145 54 -217 l34 -70 6
-205 c17 -589 155 -1030 431 -1385 278 -355 681 -569 1220 -647 181 -26 535
-31 680 -10 253 37 485 107 710 216 413 200 700 475 881 841 122 248 164 428
171 726 3 118 1 230 -6 279 -6 46 -9 85 -7 87 8 8 421 -40 459 -53 142 -50
267 -192 322 -365 18 -57 31 -147 52 -360 15 -156 28 -277 30 -269 1 8 12 134
23 279 23 293 28 324 76 429 75 165 208 278 356 301 29 5 144 17 255 27 111
10 201 20 198 22 -2 2 -111 14 -243 27 -158 16 -259 31 -295 44 -147 51 -271
194 -312 359 -12 49 -55 513 -55 596 0 27 0 27 53 21 28 -4 108 -2 176 4 591
52 1090 360 1255 775 54 135 72 308 53 493 l-8 72 35 16 c19 9 43 29 52 43 23
34 23 113 0 166 -16 39 -16 40 8 65 88 93 41 245 -86 276 -24 6 -27 11 -21 34
11 40 5 83 -15 111 -28 39 -104 72 -180 77 -116 9 -158 44 -341 291 -150 201
-259 294 -386 327 -79 20 -101 19 -160 -9 -78 -36 -125 -105 -125 -183 0 -13
-4 -23 -10 -23 -5 0 -10 11 -10 25 0 108 -119 183 -274 173 -82 -6 -137 -30
-201 -89 l-42 -39 -111 0 c-142 0 -310 -22 -457 -60 -64 -17 -120 -30 -124
-30 -4 0 -13 28 -20 61 -7 34 -33 118 -57 188 -25 69 -47 133 -50 141 -3 9 19
42 53 80 32 36 72 83 88 103 l30 38 84 -55 c86 -57 184 -100 301 -132 50 -14
103 -18 225 -19 138 0 171 3 240 23 162 47 349 157 464 275 38 39 43 49 36 74
-11 44 -186 210 -282 267 -273 161 -600 175 -861 35 -41 -21 -75 -39 -76 -39
-2 0 -6 82 -9 183 -7 211 -24 335 -73 537 -126 509 -397 903 -789 1147 -229
143 -496 233 -825 279 -126 18 -528 26 -660 14z m996 -805 c360 -69 604 -279
749 -642 23 -59 46 -121 49 -137 6 -25 5 -28 -11 -22 -110 43 -308 51 -436 17
-96 -25 -213 -85 -292 -150 l-60 -49 -96 33 c-223 78 -454 111 -704 102 -232
-9 -429 -49 -629 -127 -55 -22 -101 -38 -102 -37 -1 1 10 38 25 82 185 540
571 891 1037 945 109 12 372 4 470 -15z m-565 -945 c231 -23 437 -80 634 -175
l110 -53 -910 0 -910 0 100 48 c302 147 655 212 976 180z m919 -339 l24 -19
-39 -7 c-194 -34 -247 -277 -82 -379 136 -84 308 11 309 171 l1 58 64 -70 c78
-85 178 -213 171 -220 -3 -3 -695 -4 -1538 -3 l-1533 3 53 70 c59 78 189 225
199 225 3 0 5 -21 3 -46 -11 -134 117 -245 248 -214 59 14 117 61 141 114 38
84 15 185 -56 244 -38 31 -125 59 -145 47 -19 -12 -10 7 13 26 21 18 60 18
1082 18 1025 1 1061 0 1085 -18z m-2090 -150 c33 -33 45 -69 36 -107 -4 -15
-20 -39 -36 -55 -23 -24 -37 -29 -75 -29 -38 0 -52 5 -75 29 -33 33 -45 69
-36 107 4 15 20 39 36 55 23 24 37 29 75 29 38 0 52 -5 75 -29z m2176 -5 c28
-28 34 -42 34 -76 0 -57 -50 -110 -105 -110 -70 0 -115 41 -114 105 0 73 40
114 113 115 30 0 45 -7 72 -34z m462 -465 c17 -32 32 -61 32 -65 0 -3 -749 -6
-1665 -6 -916 0 -1665 2 -1665 4 0 5 32 62 57 104 l13 22 1598 0 1597 0 33
-59z m106 -233 c14 -40 26 -76 26 -80 0 -5 -794 -8 -1765 -8 -971 0 -1765 2
-1765 5 0 7 49 134 55 146 4 5 657 9 1714 9 l1708 0 27 -72z m1732 -139 c79
-37 166 -124 279 -276 48 -65 108 -142 133 -172 l45 -53 -125 3 c-131 4 -158
-3 -158 -41 0 -41 22 -45 294 -50 225 -4 265 -7 294 -23 22 -12 32 -25 32 -42
0 -17 -10 -30 -32 -42 -29 -16 -64 -18 -313 -18 -154 0 -286 -4 -292 -8 -19
-12 -15 -42 8 -63 20 -18 41 -19 363 -19 303 -1 345 -3 373 -18 64 -34 52
-107 -22 -136 -33 -13 -100 -15 -407 -16 -265 0 -371 -4 -379 -12 -15 -15 -4
-59 18 -69 10 -4 184 -9 387 -10 369 -2 370 -2 388 -24 21 -26 24 -83 6 -98
-36 -29 -108 -34 -598 -43 -555 -10 -568 -12 -717 -79 l-65 -30 -161 148 c-88
81 -177 162 -199 181 -96 82 -151 293 -128 485 13 105 57 246 102 326 45 78
153 183 204 198 124 36 239 -12 232 -97 -3 -33 -11 -42 -93 -103 -163 -121
-192 -175 -182 -342 10 -175 60 -285 160 -353 63 -42 139 -57 257 -50 142 8
231 45 299 122 58 66 75 117 75 230 1 138 -20 179 -174 340 -64 67 -122 136
-129 153 -28 67 50 149 129 136 19 -3 63 -19 96 -35z m-1659 -94 c7 -27 13
-56 13 -62 0 -10 -372 -13 -1825 -13 l-1825 0 6 28 c3 15 10 44 15 65 l10 37
1796 -2 1797 -3 13 -50z m-3752 -257 c-3 -57 -7 -308 -10 -558 -2 -250 -8
-513 -14 -585 -11 -122 -39 -347 -45 -352 -1 -2 -74 -8 -161 -14 -601 -43
-1062 153 -1167 496 -40 130 -23 297 44 430 141 277 477 504 903 611 113 28
364 71 423 73 l33 1 -6 -102z m3779 80 c3 -7 7 -28 10 -45 l6 -33 -1850 0
-1850 0 0 38 c0 21 3 42 7 45 3 4 831 7 1840 7 1458 0 1834 -3 1837 -12z
m-3225 -265 c-16 -27 -42 -84 -56 -128 -34 -102 -38 -274 -9 -369 55 -183 177
-330 341 -410 317 -157 704 -27 863 290 52 104 66 167 66 294 0 97 -5 128 -27
195 -14 44 -40 101 -56 128 l-31 47 286 0 285 0 -21 -30 c-65 -91 -106 -256
-97 -386 19 -262 186 -480 439 -572 65 -24 87 -27 203 -27 109 0 141 4 200 23
285 94 471 368 451 661 -7 95 -43 213 -86 284 l-29 47 263 0 263 0 -3 -62 c-8
-158 -16 -231 -39 -344 -108 -537 -462 -1006 -955 -1268 -460 -244 -1022 -280
-1511 -96 -56 20 -56 21 -96 108 -45 97 -78 195 -88 260 -8 50 -19 57 -102 65
-66 7 -93 -5 -93 -42 0 -26 23 -42 70 -48 28 -4 40 -10 40 -22 0 -14 53 -173
75 -225 7 -16 -2 -14 -51 14 -173 98 -306 202 -454 357 -135 140 -223 264
-310 436 -120 240 -186 485 -197 735 l-6 132 251 0 252 0 -31 -47z m3822 -334
c11 -21 0 -38 -24 -39 -13 0 -47 -64 -47 -87 0 -13 -6 -23 -14 -23 -22 0 -148
-97 -169 -130 -10 -17 -20 -47 -20 -68 -1 -36 -7 -43 -101 -119 l-101 -82 -7
47 c-3 26 -7 142 -7 259 -1 193 1 212 17 217 21 6 275 35 352 39 30 2 67 4 82
5 19 1 31 -5 39 -19z m71 -96 c64 -54 543 -495 562 -517 37 -47 -18 -107 -66
-73 -13 9 -149 132 -303 274 -186 172 -281 266 -283 282 -4 24 23 61 44 61 7
0 27 -12 46 -27z m34 -299 c65 -86 119 -158 119 -161 0 -3 -37 -34 -82 -69
l-82 -64 -120 157 c-69 90 -121 167 -121 180 0 30 102 113 139 113 24 0 44
-22 147 -156z m-4281 -134 c15 -30 38 -71 50 -91 l23 -35 -62 0 c-44 1 -73 -5
-105 -21 l-44 -22 6 82 c4 45 10 142 13 215 l7 133 42 -103 c23 -57 54 -128
70 -158z m3601 -157 c-2 -3 -19 3 -38 13 -19 10 -57 18 -91 18 -31 0 -56 3
-54 6 76 148 129 259 148 310 l24 65 8 -204 c4 -112 5 -206 3 -208z m1580 174
c62 -136 82 -319 46 -423 -30 -86 -83 -164 -172 -255 -121 -123 -245 -201
-418 -263 -77 -28 -251 -66 -300 -66 l-29 0 24 83 c13 45 27 110 30 144 l6 61
52 -43 c73 -59 136 -78 239 -73 99 5 165 37 231 111 120 133 112 341 -18 466
l-46 44 20 25 c30 39 25 86 -16 131 l-35 39 56 23 c83 33 150 47 232 48 l73 1
25 -53z m-1125 -94 l105 -138 -5 -51 c-6 -51 -6 -51 -116 -141 -60 -50 -144
-120 -185 -156 l-75 -66 -13 42 c-20 65 -50 252 -58 358 l-7 96 119 96 c66 52
121 96 124 96 3 1 53 -61 111 -136z m523 -4 c33 -39 33 -57 -1 -65 -99 -21
-189 -85 -239 -170 -14 -24 -30 -44 -35 -44 -23 0 -69 73 -54 88 25 26 282
221 292 221 6 1 23 -13 37 -30z m-4499 -159 c86 -53 82 -176 -8 -230 -140 -86
-275 110 -152 219 44 38 109 43 160 11z m3456 5 c120 -62 72 -255 -63 -255
-101 0 -169 111 -123 201 32 62 121 87 186 54z m1222 -32 c103 -57 150 -174
117 -294 -14 -48 -84 -127 -135 -150 -58 -27 -147 -25 -211 5 -124 58 -177
212 -115 334 35 69 97 114 186 136 37 9 110 -6 158 -31z m-4331 -294 c203
-180 457 -330 688 -405 47 -15 87 -29 89 -31 2 -1 -19 -60 -47 -130 -78 -194
-105 -320 -106 -478 -1 -152 10 -206 66 -324 82 -172 259 -297 471 -331 33 -5
62 -11 64 -14 3 -3 -10 -35 -28 -73 -43 -87 -192 -239 -294 -299 l-70 -41 -12
76 c-22 138 -127 309 -250 406 l-56 43 -53 -61 c-82 -96 -188 -178 -289 -222
-82 -37 -205 -58 -281 -50 -35 3 -64 9 -64 11 0 3 11 20 24 37 47 61 61 114
61 223 0 99 -1 104 -40 180 -90 176 -224 206 -440 99 -49 -24 -114 -62 -143
-85 -29 -22 -54 -40 -56 -40 -12 0 -30 106 -29 171 3 133 76 318 191 477 28
40 52 75 52 78 0 2 -33 4 -72 4 -237 1 -431 115 -528 313 -40 81 -80 215 -80
267 l0 26 67 -32 c96 -47 192 -69 302 -69 l93 0 43 47 c44 49 82 135 105 241
l13 58 31 -30 c86 -83 234 -81 320 5 33 33 65 98 66 132 0 19 11 11 65 -50 35
-40 93 -98 127 -129z m2865 64 c44 -55 104 -83 175 -83 66 0 108 15 154 53
l31 26 22 -87 c27 -106 76 -199 122 -231 31 -21 41 -23 129 -18 104 6 201 32
293 78 69 35 68 36 33 -103 -35 -137 -84 -229 -170 -314 -110 -110 -245 -163
-413 -164 -40 0 -73 -3 -73 -8 0 -4 23 -39 51 -77 68 -94 144 -251 170 -354
23 -90 23 -208 1 -263 l-11 -28 -94 64 c-146 99 -288 142 -382 116 -134 -37
-228 -222 -203 -400 8 -62 44 -146 72 -169 9 -8 16 -17 16 -21 0 -15 -126 -21
-195 -10 -149 24 -262 88 -403 228 l-103 102 -92 -92 c-51 -51 -108 -120 -127
-152 -46 -79 -79 -179 -80 -239 l0 -49 -47 27 c-84 48 -194 138 -245 198 -59
71 -125 196 -106 201 7 2 45 10 83 20 298 70 485 313 485 630 0 144 -48 346
-125 526 l-34 79 85 26 c303 92 582 262 814 495 l115 115 11 -43 c6 -23 24
-59 41 -79z m939 72 c20 -14 42 -25 49 -25 8 0 15 -25 19 -67 l7 -68 -38 -33
c-74 -65 -207 -114 -340 -127 -54 -5 -72 -3 -88 9 -19 16 -18 18 48 78 61 55
299 256 304 258 1 0 19 -11 39 -25z m-2773 -621 c67 -9 137 -18 155 -20 l32
-5 0 -403 c0 -378 1 -405 18 -427 26 -31 78 -31 104 0 17 22 18 49 18 426 l0
402 83 7 c79 7 184 21 238 32 24 5 28 0 58 -68 193 -430 166 -774 -74 -955
-279 -211 -730 -133 -882 153 -89 168 -90 389 -1 648 49 145 95 239 114 232 8
-3 70 -13 137 -22z m2844 -113 c58 -29 138 -53 220 -66 l43 -7 -5 -51 c-3 -29
-14 -160 -25 -292 -11 -137 -26 -264 -36 -295 -49 -164 -156 -285 -304 -341
-59 -22 -477 -67 -490 -52 -3 4 -13 40 -20 78 -7 39 -15 76 -18 83 -9 25 15
10 82 -50 l69 -62 20 25 c11 13 34 53 51 89 26 56 31 79 34 166 5 132 -19 230
-97 387 l-59 117 27 6 c74 16 141 39 199 67 69 34 188 136 222 192 12 19 23
35 25 35 2 0 29 -13 62 -29z m-4151 -838 c51 -33 104 -153 104 -233 0 -49 -23
-121 -50 -160 -19 -27 -85 -70 -108 -70 -22 0 -107 223 -141 369 l-19 82 27
11 c75 29 145 29 187 1z m4544 -157 c36 -38 89 -82 118 -98 l52 -30 -45 -29
c-91 -58 -204 -194 -237 -285 -7 -19 -14 -34 -18 -34 -3 0 -17 26 -32 58 -38
82 -121 185 -190 237 -33 25 -65 45 -71 45 -7 0 13 14 43 32 74 42 178 149
219 227 l34 64 31 -59 c17 -32 60 -90 96 -128z m-3670 -208 c86 -106 122 -184
128 -280 4 -68 -4 -130 -24 -182 -5 -14 1 -13 50 4 220 75 426 241 523 420
l32 60 38 -73 c51 -99 196 -243 316 -314 86 -50 232 -111 243 -101 3 3 -2 34
-11 69 -25 92 -15 165 35 264 21 44 62 105 89 135 44 49 50 52 51 31 0 -34
-47 -240 -76 -328 -150 -459 -482 -703 -960 -703 -447 0 -977 306 -1266 731
-27 39 -47 73 -46 74 2 2 35 -5 73 -15 222 -59 477 23 668 214 34 34 65 63 69
64 4 1 35 -31 68 -70z"/>
<path d="M4013 6821 c-77 -19 -132 -75 -154 -154 -44 -163 139 -309 291 -232
122 62 150 233 54 328 -52 52 -125 74 -191 58z m123 -125 c28 -28 34 -42 34
-76 0 -57 -50 -110 -104 -110 -73 0 -121 47 -119 115 2 62 48 104 117 105 30
0 45 -7 72 -34z"/>
<path d="M4575 6825 c-5 -2 -22 -6 -38 -9 -36 -8 -107 -73 -124 -113 -16 -39
-17 -121 -2 -160 13 -35 64 -90 104 -110 73 -39 197 -9 249 60 98 128 23 307
-139 330 -22 3 -44 4 -50 2z m92 -115 c60 -36 63 -138 4 -180 -18 -12 -45 -20
-71 -20 -34 0 -48 6 -76 34 -28 28 -34 42 -34 76 0 34 6 48 34 76 40 40 92 46
143 14z"/>
<path d="M5087 6817 c-156 -49 -197 -251 -72 -355 134 -110 336 -14 335 160
-1 90 -68 175 -156 197 -51 13 -58 13 -107 -2z m125 -107 c88 -68 42 -200 -69
-200 -36 0 -50 6 -73 29 -16 16 -32 40 -36 55 -9 38 3 74 36 107 36 36 103 40
142 9z"/>
<path d="M4473 4189 c-114 -57 -158 -197 -97 -310 74 -135 245 -159 355 -49
102 101 87 263 -32 346 -57 40 -162 46 -226 13z"/>
</g>
</svg>
