<?xml version="1.0" standalone="no"?>
<!DOCTYPE svg PUBLIC "-//W3C//DTD SVG 20010904//EN"
 "http://www.w3.org/TR/2001/REC-SVG-20010904/DTD/svg10.dtd">
<svg version="1.0" xmlns="http://www.w3.org/2000/svg"
 width="500.000000pt" height="500.000000pt" viewBox="0 0 500.000000 500.000000"
 preserveAspectRatio="xMidYMid meet">

<g transform="translate(0.000000,500.000000) scale(0.100000,-0.100000)"
fill="#000000" stroke="none">
<path d="M595 4921 c-95 -25 -198 -112 -229 -193 -16 -40 -24 -48 -64 -64 -69
-26 -164 -124 -188 -194 -86 -252 127 -500 383 -447 l62 13 157 -157 157 -157
-50 -69 c-200 -271 -333 -580 -388 -901 -36 -210 -36 -505 0 -710 46 -267 143
-521 287 -756 l60 -98 -110 -111 -110 -110 -32 12 c-18 6 -64 11 -101 11 -135
0 -241 -66 -301 -187 -27 -55 -32 -77 -32 -137 -1 -100 24 -164 90 -236 38
-40 72 -65 109 -81 46 -19 56 -28 70 -65 24 -62 96 -138 163 -171 50 -24 69
-28 147 -28 78 0 97 4 147 28 159 78 231 269 163 432 l-26 60 93 87 c51 48 96
87 101 88 4 0 42 -27 85 -59 736 -561 1777 -567 2518 -15 47 35 89 64 92 64 4
0 49 -40 100 -88 l93 -87 -27 -64 c-52 -127 -17 -282 82 -370 76 -67 125 -85
229 -85 75 0 98 4 140 24 67 32 147 114 169 172 16 40 24 48 64 64 69 26 164
124 188 194 86 252 -127 500 -383 447 l-62 -13 -105 105 c-59 59 -106 109
-106 113 0 3 28 50 62 104 385 614 420 1410 91 2057 -58 113 -151 262 -208
333 l-34 41 143 143 144 142 37 -12 c61 -20 180 -8 243 24 64 33 122 90 153
154 20 40 24 62 24 147 0 89 -3 106 -27 151 -33 62 -113 137 -172 159 -39 15
-48 25 -76 81 -34 69 -86 120 -159 156 -37 19 -63 23 -136 23 -76 0 -98 -4
-145 -26 -168 -80 -242 -288 -161 -452 l20 -40 -92 -86 c-51 -48 -115 -108
-144 -134 l-51 -48 -94 62 c-203 134 -472 243 -721 294 -549 111 -1125 -1
-1580 -307 -32 -22 -64 -38 -70 -35 -7 2 -81 69 -165 147 -112 105 -151 148
-146 159 42 99 46 118 42 192 -8 131 -76 233 -195 289 -51 24 -166 35 -218 21z
m172 -152 c119 -58 144 -214 50 -316 l-39 -43 197 -199 c108 -109 192 -200
186 -202 -5 -2 -52 -43 -104 -91 l-94 -87 -190 192 -190 192 -42 -30 c-36 -25
-52 -30 -104 -30 -77 0 -131 26 -171 83 -51 72 -46 175 11 243 29 34 92 69
125 69 53 0 65 10 72 56 11 83 57 145 127 173 42 17 120 12 166 -10z m3650
-45 c51 -29 80 -74 94 -146 l11 -55 60 -11 c129 -24 200 -132 168 -253 -16
-59 -81 -123 -140 -139 -56 -15 -132 0 -175 34 l-29 23 -174 -178 -174 -179
-102 96 -101 96 178 180 179 180 -36 37 c-89 91 -86 222 8 297 71 58 153 64
233 18z m-1766 -424 c807 -67 1469 -608 1694 -1385 14 -49 24 -90 22 -92 -2
-2 -45 11 -96 29 l-93 33 -24 75 c-36 112 -155 343 -228 445 -595 827 -1743
979 -2533 334 -95 -78 -229 -223 -309 -334 -77 -108 -189 -327 -228 -446 l-28
-87 -73 -21 c-41 -12 -81 -24 -91 -28 -15 -5 -16 -1 -10 33 24 131 147 419
241 566 161 249 394 472 649 623 281 165 588 250 946 263 25 1 97 -3 161 -8z
m59 -475 c323 -53 630 -247 812 -514 32 -47 56 -86 54 -88 -2 -2 -43 1 -92 6
-376 42 -896 62 -1269 50 -274 -9 -409 -19 -648 -50 -87 -11 -160 -19 -162
-17 -11 11 124 187 205 268 181 181 406 298 660 344 104 19 324 19 440 1z
m565 -856 c426 -19 693 -66 1036 -185 145 -50 179 -67 179 -89 0 -8 -10 -17
-22 -20 -18 -4 -598 -75 -614 -75 -2 0 -4 8 -4 18 0 38 -23 94 -51 127 -60 68
-165 89 -604 117 -257 16 -1096 16 -1305 0 -370 -29 -535 -54 -609 -91 -66
-34 -121 -115 -121 -179 0 -9 -11 -11 -37 -7 -21 3 -163 24 -316 45 -153 22
-283 42 -288 45 -40 25 29 63 219 121 371 113 744 169 1217 184 291 9 1002 4
1320 -11z m-415 -149 c396 -15 712 -39 799 -61 41 -10 77 -22 80 -25 3 -3 6
-67 5 -142 -1 -209 -40 -377 -130 -555 -269 -535 -869 -805 -1445 -651 -409
109 -744 432 -872 840 -32 100 -57 266 -57 371 0 70 3 82 23 100 55 51 135 69
433 98 329 33 729 41 1164 25z m-2094 -420 c2 -195 14 -286 60 -460 105 -399
366 -758 727 -999 76 -51 310 -171 334 -171 7 0 30 -26 52 -58 21 -32 69 -86
106 -120 l67 -63 -38 7 c-78 14 -282 86 -392 139 -559 269 -942 775 -1059
1400 -16 89 -29 418 -19 487 l7 44 77 -10 77 -11 1 -185z m3649 88 c17 -298
-51 -633 -184 -913 -237 -497 -687 -875 -1214 -1020 -119 -32 -130 -32 -82 7
59 48 103 96 141 155 19 29 40 53 47 53 17 0 208 93 281 137 174 104 380 293
504 461 130 176 229 385 282 596 42 167 53 262 53 458 l0 177 41 4 c22 2 60 4
82 5 l42 2 7 -122z m-2287 -1165 c23 -8 42 -18 42 -21 0 -4 -9 -34 -19 -67
-13 -38 -24 -59 -33 -57 -7 2 -41 16 -76 32 -44 21 -61 33 -56 42 39 67 67 99
82 93 10 -4 36 -14 60 -22z m855 -5 c37 -49 60 -99 50 -109 -10 -10 -120 -49
-138 -49 -6 0 -16 26 -23 58 -7 31 -15 66 -18 77 -4 17 3 23 38 37 60 23 64
22 91 -14z m-162 -98 c11 -50 14 -77 7 -81 -6 -4 -44 -12 -86 -19 -59 -9 -76
-9 -82 1 -8 13 -24 139 -18 143 6 5 143 33 152 32 5 -1 17 -36 27 -76z m-493
53 c37 -5 42 -9 42 -32 -1 -35 -16 -110 -24 -118 -5 -5 -166 26 -166 33 0 1 9
32 21 69 l20 67 32 -6 c18 -4 51 -9 75 -13z m269 -85 c5 -40 7 -77 5 -82 -4
-8 -190 -2 -196 6 -2 2 2 36 7 76 l11 72 82 0 82 0 9 -72z m-487 -77 c0 -19
-51 -184 -60 -195 -5 -4 -31 -1 -59 9 -39 13 -52 22 -57 42 -8 31 2 149 16
190 l11 31 74 -32 c41 -17 75 -37 75 -45z m955 32 c4 -10 9 -57 12 -104 l6
-87 -57 -21 c-31 -11 -63 -21 -70 -21 -8 0 -21 36 -34 97 -12 53 -21 97 -20
98 4 3 142 52 149 54 4 0 10 -7 14 -16z m-802 -60 l79 -17 -6 -45 c-3 -25 -11
-74 -17 -108 -10 -57 -13 -62 -33 -58 -11 2 -58 12 -104 21 -54 11 -81 21 -78
29 2 6 16 53 32 103 15 51 32 92 38 92 6 0 46 -8 89 -17z m596 -30 c35 -133
39 -162 22 -168 -26 -8 -161 -35 -175 -35 -9 0 -17 28 -24 83 -19 132 -23 123
66 140 42 8 82 15 89 16 7 0 17 -16 22 -36z m-1877 -101 l70 -73 -137 -140
-137 -140 39 -42 c123 -133 38 -337 -139 -337 -114 0 -188 67 -204 184 l-6 44
-61 11 c-73 13 -122 48 -155 112 -31 60 -27 140 10 197 31 46 114 92 167 92
36 0 133 -39 145 -58 3 -5 70 55 148 135 l143 144 24 -28 c13 -15 55 -61 93
-101z m3477 -137 c36 25 52 30 104 30 77 0 131 -26 171 -83 51 -72 46 -175
-11 -243 -29 -34 -92 -69 -125 -69 -53 0 -65 -10 -72 -56 -14 -108 -83 -175
-186 -182 -187 -14 -285 196 -158 334 l40 43 -136 139 -135 138 48 48 c26 26
68 71 92 101 l44 54 141 -142 142 -142 41 30z m-1903 235 l61 0 11 -94 c7 -52
12 -100 12 -105 0 -7 -49 -11 -141 -11 l-141 0 5 28 c3 15 11 65 17 111 l13
83 51 -6 c28 -3 78 -6 112 -6z m470 -253 c-138 -278 -498 -390 -794 -246 -74
36 -173 124 -217 194 -30 48 -69 135 -61 135 3 0 56 -13 118 -29 180 -46 288
-61 443 -61 161 0 257 14 425 62 63 18 117 30 118 26 2 -5 -13 -41 -32 -81z"/>
<path d="M1852 2559 c-105 -20 -224 -114 -276 -216 -91 -180 -32 -405 136
-516 82 -53 145 -70 247 -65 70 3 99 10 151 34 83 39 155 110 193 193 143 304
-119 636 -451 570z"/>
<path d="M2972 2554 c-137 -37 -236 -128 -283 -262 -32 -89 -24 -218 18 -303
41 -82 110 -152 193 -192 61 -30 71 -32 175 -32 101 0 115 2 170 29 161 79
259 266 228 434 -31 166 -163 302 -324 332 -68 13 -113 12 -177 -6z"/>
<path d="M2440 1813 c-8 -3 -30 -19 -48 -36 -99 -95 -30 -257 110 -257 150 0
205 201 76 280 -32 19 -103 26 -138 13z"/>
</g>
</svg>
