<?xml version="1.0" standalone="no"?>
<!DOCTYPE svg PUBLIC "-//W3C//DTD SVG 20010904//EN"
 "http://www.w3.org/TR/2001/REC-SVG-20010904/DTD/svg10.dtd">
<svg version="1.0" xmlns="http://www.w3.org/2000/svg"
 width="920.000000pt" height="726.000000pt" viewBox="0 0 920.000000 726.000000"
 preserveAspectRatio="xMidYMid meet">

<g transform="translate(0.000000,726.000000) scale(0.100000,-0.100000)"
fill="#000000" stroke="none">
<path d="M2417 7233 c-108 -36 -191 -154 -204 -286 l-6 -65 -111 -4 c-93 -3
-120 -8 -166 -29 -115 -53 -161 -130 -168 -276 -4 -85 -2 -98 22 -147 77 -158
267 -222 491 -166 48 12 88 20 90 18 2 -2 66 -83 142 -180 76 -96 252 -320
391 -496 138 -176 252 -323 252 -327 0 -4 -23 -42 -51 -84 -195 -291 -284
-678 -250 -1081 31 -355 133 -609 300 -743 22 -18 51 -53 66 -79 64 -116 173
-217 308 -284 l68 -35 -43 -54 c-26 -32 -54 -56 -70 -60 -34 -8 -47 -24 -45
-55 1 -19 -62 -104 -252 -342 -140 -174 -258 -315 -263 -312 -4 3 -8 15 -8 26
0 46 -34 157 -72 237 -70 148 -209 261 -378 307 -88 25 -294 25 -405 0 -264
-58 -452 -237 -538 -511 -30 -95 -47 -208 -47 -308 l0 -72 -30 52 c-75 131
-236 235 -422 273 -111 24 -191 25 -318 5 -462 -69 -719 -425 -697 -965 16
-386 172 -632 479 -750 119 -46 196 -60 338 -60 194 0 379 48 522 134 l56 33
30 -43 c69 -97 157 -134 322 -134 l107 0 6 -68 c10 -105 33 -160 92 -219 41
-40 65 -55 110 -69 146 -42 307 25 381 158 28 50 29 59 29 173 0 110 -3 128
-33 212 l-32 92 82 104 c46 57 108 135 138 174 39 50 70 78 108 98 177 93 324
244 580 595 106 146 211 285 233 310 l41 45 -6 -75 c-3 -41 -9 -187 -12 -325
-5 -205 -3 -263 9 -322 33 -154 97 -272 207 -383 135 -135 267 -192 493 -210
267 -21 708 -8 842 26 107 27 211 90 306 184 74 73 93 100 138 190 78 160 84
200 77 540 -3 157 -8 296 -12 310 l-7 25 26 -23 c14 -13 112 -144 219 -290
263 -363 393 -495 592 -603 72 -39 83 -49 207 -207 l132 -165 -18 -46 c-65
-169 -73 -320 -21 -424 64 -131 235 -205 378 -163 118 34 193 138 205 288 l6
66 126 4 c114 3 132 6 183 31 52 25 111 79 135 121 9 16 16 14 75 -19 168 -92
334 -129 543 -122 246 8 413 75 565 228 92 91 149 195 187 337 25 89 27 113
27 297 0 185 -2 207 -27 300 -95 354 -312 553 -665 611 -317 52 -640 -75 -750
-296 l-32 -63 0 86 c0 358 -154 647 -410 770 -111 53 -195 73 -340 83 -345 22
-611 -172 -678 -496 -9 -44 -19 -80 -22 -79 -3 0 -57 66 -120 146 -63 81 -176
224 -252 318 -75 94 -138 182 -140 195 -2 15 -14 30 -29 37 -23 11 -81 73
-102 109 -4 7 25 30 78 59 96 54 187 137 242 222 21 32 52 69 68 83 121 99
210 242 259 415 36 127 46 196 55 390 15 283 -17 531 -94 755 -38 107 -114
267 -159 333 -15 21 -23 44 -19 50 5 9 769 982 789 1006 2 2 42 -6 90 -19 119
-30 245 -26 324 11 73 34 125 80 161 143 26 46 29 60 29 138 0 150 -47 235
-158 290 -61 30 -76 33 -179 37 l-113 3 0 43 c0 24 -9 73 -21 111 -17 56 -31
77 -78 125 -89 89 -177 108 -307 68 -56 -17 -77 -31 -124 -77 -73 -73 -90
-122 -90 -252 0 -100 21 -204 59 -293 l20 -46 -380 -475 -380 -475 -57 36
c-121 78 -338 162 -512 198 -553 116 -1160 37 -1551 -201 -35 -21 -64 -33 -69
-28 -5 5 -178 220 -384 478 -364 457 -374 470 -361 495 25 49 55 164 64 244
24 212 -50 345 -220 398 -73 23 -127 23 -192 2z m180 -48 c75 -22 126 -65 159
-132 26 -51 29 -69 28 -148 0 -95 -19 -187 -61 -292 l-24 -61 382 -478 c210
-263 382 -483 383 -489 1 -6 -40 -45 -90 -87 -50 -42 -111 -99 -135 -127 -24
-28 -47 -51 -51 -51 -4 0 -188 230 -408 510 -221 281 -406 510 -410 510 -4 0
-27 -7 -51 -15 -75 -27 -131 -36 -212 -36 -124 0 -216 50 -275 150 -22 37 -25
55 -25 120 2 127 42 197 138 243 68 31 161 40 263 25 l52 -8 0 72 c0 101 25
172 80 231 69 75 150 95 257 63z m4226 -18 c79 -47 120 -130 133 -272 l7 -75
36 7 c59 13 192 6 240 -11 110 -40 164 -124 165 -256 1 -91 -20 -137 -89 -198
-59 -52 -123 -73 -218 -73 -82 0 -103 3 -195 33 -54 17 -66 18 -77 7 -7 -8
-189 -239 -405 -514 -216 -275 -395 -502 -397 -504 -2 -3 -18 13 -35 35 -41
50 -140 149 -201 199 l-47 40 385 482 385 481 -35 104 c-80 240 -64 401 49
489 81 63 215 75 299 26z m-1853 -1342 c626 -91 1042 -420 1225 -967 75 -226
104 -473 86 -742 -17 -264 -61 -438 -146 -576 -39 -63 -110 -145 -101 -116 15
46 36 194 36 252 0 118 -19 215 -56 291 -41 86 -157 213 -270 299 -110 82
-109 81 -108 259 1 131 17 269 40 351 9 33 -34 41 -46 9 -20 -52 -40 -241 -40
-374 0 -171 10 -199 98 -264 195 -143 295 -272 321 -412 16 -85 14 -234 -5
-323 -9 -42 -33 -113 -53 -157 -71 -150 -172 -246 -348 -326 -125 -58 -163
-96 -142 -143 16 -35 73 -59 152 -64 37 -2 67 -7 67 -11 -1 -3 -35 -22 -78
-41 -79 -36 -142 -82 -142 -104 0 -7 9 -21 20 -31 20 -18 56 -18 275 0 l70 6
-25 -20 c-14 -11 -73 -45 -132 -76 l-108 -56 -72 42 c-107 62 -261 133 -356
163 -89 28 -289 70 -385 81 l-58 7 35 38 c101 112 23 280 -130 280 -89 0 -154
-61 -162 -153 -5 -60 11 -100 54 -141 l26 -24 -63 -7 c-98 -10 -298 -52 -391
-81 -94 -30 -249 -101 -355 -162 l-71 -42 -49 21 c-73 32 -183 99 -183 110 0
8 36 9 113 4 124 -8 190 3 207 34 19 37 -26 71 -163 125 -48 19 -40 36 17 36
125 0 197 79 129 142 -16 14 -75 48 -133 76 -58 28 -131 71 -163 97 -114 90
-200 242 -228 399 -15 89 -7 306 14 363 40 107 146 231 288 336 117 86 123
103 116 325 -7 218 -31 349 -62 344 -11 -2 -22 -5 -23 -7 -2 -2 3 -34 11 -72
22 -99 29 -180 29 -318 -1 -151 -7 -166 -106 -239 -153 -113 -265 -252 -304
-376 -21 -70 -24 -319 -3 -398 7 -29 11 -55 8 -58 -10 -10 -101 123 -138 201
-116 247 -152 680 -83 1013 91 440 371 805 775 1008 178 89 434 160 659 183
129 13 481 5 610 -14z m670 -2959 c0 -10 -64 1 -107 19 -37 16 -36 32 5 58 27
17 27 16 64 -26 21 -23 38 -46 38 -51z m-1972 63 c12 -11 20 -24 17 -29 -7
-11 -106 -42 -113 -36 -5 6 59 86 68 86 3 0 16 -9 28 -21z m2081 -196 c17 -20
29 -38 28 -39 -1 -2 -53 -10 -115 -18 -163 -23 -171 -11 -35 55 43 21 81 38
85 38 3 1 20 -16 37 -36z m-2179 -6 c108 -42 114 -57 23 -57 -37 0 -91 3 -120
6 l-52 7 31 38 c17 22 32 39 33 39 1 0 39 -15 85 -33z m1336 -26 c236 -48 413
-121 659 -270 225 -137 552 -369 794 -565 202 -162 393 -223 521 -165 88 40
130 104 138 210 14 195 -106 314 -270 269 -67 -19 -138 -101 -138 -160 0 -34
41 -22 53 15 20 63 79 105 149 105 100 0 158 -71 158 -194 0 -83 -22 -139 -69
-179 -38 -32 -83 -41 -165 -35 -109 9 -249 82 -375 195 l-54 48 12 118 c36
372 230 577 561 594 369 19 632 -149 739 -472 43 -131 55 -231 48 -419 -8
-231 -50 -383 -145 -523 -141 -207 -410 -326 -697 -309 -128 7 -186 23 -310
85 -120 60 -192 113 -303 224 -93 92 -96 96 -319 402 -171 234 -258 337 -357
424 -255 222 -574 356 -885 368 -153 7 -255 -5 -407 -48 -293 -82 -552 -250
-755 -489 -26 -30 -115 -149 -199 -265 -213 -293 -219 -300 -312 -392 -115
-114 -185 -165 -313 -228 -144 -70 -190 -80 -355 -79 -234 1 -404 63 -552 202
-151 141 -225 338 -235 628 -7 187 5 288 48 419 107 323 370 491 739 472 332
-17 526 -223 561 -595 l11 -117 -54 -48 c-124 -113 -265 -186 -374 -195 -116
-9 -178 20 -215 103 -28 60 -26 169 4 225 62 118 243 102 284 -25 6 -19 17
-31 31 -33 28 -4 29 25 2 77 -63 124 -225 148 -328 48 -79 -77 -82 -276 -5
-368 15 -18 50 -42 78 -55 131 -62 320 -3 526 162 376 303 775 570 1044 700
320 155 695 204 1031 135z m1157 -360 c183 -229 207 -263 207 -295 0 -20 -3
-36 -6 -36 -3 0 -78 53 -167 118 -89 66 -232 165 -317 222 -85 56 -156 105
-157 109 -2 3 35 25 80 49 46 24 97 54 113 67 16 14 32 24 35 25 3 0 98 -116
212 -259z m-2655 212 c32 -21 81 -49 110 -62 29 -14 51 -28 50 -32 -2 -4 -73
-53 -158 -109 -85 -57 -228 -156 -317 -222 -89 -65 -164 -118 -168 -118 -3 0
-5 12 -3 26 2 15 88 132 213 289 116 145 211 264 212 265 1 0 29 -17 61 -37z
m1162 -342 l0 -219 -97 4 c-171 8 -358 25 -367 34 -13 12 13 293 27 303 40 26
278 81 387 90 25 2 46 4 48 5 1 1 2 -97 2 -217z m231 193 c102 -18 238 -59
260 -76 12 -10 19 -47 27 -153 7 -76 8 -142 4 -146 -9 -9 -220 -28 -357 -31
l-110 -3 -3 213 -2 212 49 0 c27 0 86 -7 132 -16z m-741 -237 c-6 -67 -14
-124 -16 -126 -13 -13 -284 62 -284 79 0 23 302 198 308 179 2 -5 -1 -65 -8
-132z m1160 92 c95 -52 210 -128 210 -139 0 -20 -261 -93 -277 -77 -12 12 -30
257 -18 257 5 0 44 -19 85 -41z m-4223 -153 c303 -64 463 -240 463 -508 0
-243 -155 -434 -406 -498 -241 -62 -418 29 -432 221 -10 132 66 218 191 219
85 0 138 -48 153 -138 5 -31 11 -42 25 -42 27 0 31 14 19 67 -30 133 -147 194
-285 147 -133 -46 -186 -192 -129 -357 22 -64 89 -129 162 -159 84 -33 236
-31 347 5 201 66 333 200 385 389 l16 61 28 -79 c49 -138 132 -259 228 -335
29 -23 54 -44 56 -49 8 -21 -277 -325 -397 -421 -166 -135 -362 -200 -601
-200 -232 0 -418 70 -561 211 -89 88 -156 209 -186 337 -28 122 -26 426 5 548
95 379 366 588 769 594 45 0 113 -6 150 -13z m7588 -15 c272 -70 455 -260 537
-558 30 -109 33 -437 5 -556 -67 -283 -276 -477 -582 -538 -33 -6 -112 -11
-175 -11 -368 4 -616 154 -926 558 l-58 76 52 45 c102 88 191 228 228 359 10
35 21 64 24 64 3 0 10 -27 17 -59 25 -132 127 -275 248 -346 101 -60 203 -88
325 -89 126 -1 195 22 260 85 108 105 119 300 21 398 -74 74 -209 93 -285 40
-43 -29 -83 -100 -88 -154 -3 -34 0 -40 18 -43 17 -2 22 3 27 32 16 96 67 146
152 146 130 -1 204 -87 192 -226 -15 -187 -192 -275 -429 -215 -292 75 -452
321 -398 612 12 65 57 160 101 212 64 78 198 149 344 182 84 20 285 12 390
-14z m-4800 -36 c33 -13 104 -35 158 -47 94 -21 97 -23 97 -50 0 -32 -30 -381
-33 -385 -6 -5 -251 82 -307 110 l-65 32 3 155 2 155 33 27 c17 15 37 28 42
28 6 0 37 -11 70 -25z m1749 -17 l48 -43 8 -125 c5 -68 6 -128 3 -133 -10 -17
-186 -94 -291 -128 -81 -26 -105 -31 -111 -21 -6 10 -35 321 -36 386 0 5 50
21 110 36 61 16 130 37 155 48 25 11 50 21 55 21 6 1 32 -18 59 -41z m-1264
-78 c63 -5 157 -10 208 -10 l92 0 0 -220 0 -220 -78 0 c-85 0 -297 23 -381 41
l-54 11 6 82 c4 44 12 138 18 209 l12 127 31 -5 c17 -3 83 -10 146 -15z m852
-170 c9 -102 17 -195 17 -206 1 -20 -8 -24 -86 -38 -121 -21 -267 -36 -358
-36 l-75 0 0 218 0 219 178 7 c97 4 200 11 227 16 85 13 78 25 97 -180z m482
-365 c-4 -155 -20 -228 -76 -344 -34 -69 -60 -103 -128 -172 -127 -129 -240
-181 -435 -199 -141 -13 -556 -13 -705 0 -195 17 -308 68 -436 195 -68 67 -90
98 -128 176 -65 134 -76 191 -76 402 0 97 4 177 9 177 4 0 46 -18 92 -39 100
-47 219 -83 384 -116 463 -92 1009 -44 1383 123 l107 47 6 -60 c3 -33 4 -118
3 -190z m1755 -409 c9 -11 -2 -18 -59 -36 -39 -13 -73 -20 -77 -16 -8 8 -7 9
52 39 58 30 69 32 84 13z m-5423 -23 c67 -30 58 -43 -13 -18 -27 10 -54 19
-61 21 -14 4 -7 24 7 24 5 0 35 -12 67 -27z m15 -79 c44 -15 44 -15 67 11 l22
26 78 -18 c100 -23 311 -23 397 0 32 9 61 14 64 11 2 -2 -7 -17 -21 -32 -13
-15 -66 -80 -116 -144 l-92 -117 25 -54 c61 -139 76 -293 36 -382 -30 -67 -64
-102 -136 -136 -106 -51 -210 -37 -286 40 -57 57 -79 121 -79 234 l0 79 -52
-9 c-85 -13 -198 -8 -257 12 -57 19 -123 71 -146 115 -14 27 -13 28 79 113 52
48 135 133 186 191 l92 104 48 -14 c26 -8 68 -21 91 -30z m5354 15 l90 31 30
-33 c17 -18 67 -75 112 -127 45 -52 114 -123 152 -158 39 -35 71 -70 71 -78 0
-22 -69 -93 -111 -114 -61 -32 -165 -44 -254 -31 -42 6 -80 11 -85 11 -5 0 -9
-35 -9 -77 0 -143 -45 -234 -138 -279 -46 -23 -63 -26 -121 -22 -109 8 -197
64 -238 153 -42 89 -29 256 31 390 l25 57 -111 140 c-61 77 -108 142 -106 145
3 2 25 -1 48 -8 70 -20 308 -15 399 9 l75 19 25 -29 25 -29 90 30z"/>
<path d="M3765 4099 c-172 -35 -325 -181 -370 -354 -78 -303 156 -605 470
-605 130 0 244 49 342 146 251 253 151 679 -186 795 -67 24 -187 32 -256 18z"/>
<path d="M5220 4096 c-179 -38 -331 -193 -369 -374 -34 -163 23 -339 145 -451
155 -142 367 -171 556 -75 65 33 164 132 200 200 101 188 66 416 -86 568 -121
120 -281 168 -446 132z"/>
</g>
</svg>
